<?xml version="1.0" encoding="utf-8"?>
<!-- Generator: Adobe Illustrator 16.0.0, SVG Export Plug-In . SVG Version: 6.00 Build 0)  -->
<!DOCTYPE svg PUBLIC "-//W3C//DTD SVG 1.1//EN" "http://www.w3.org/Graphics/SVG/1.1/DTD/svg11.dtd">
<svg version="1.1" id="Layer_1" xmlns="http://www.w3.org/2000/svg" xmlns:xlink="http://www.w3.org/1999/xlink" x="0px" y="0px"
	 width="300px" height="104.276px" viewBox="-91.927 -31.953 300 104.276" enable-background="new -91.927 -31.953 300 104.276"
	 xml:space="preserve">
<g>
	<path fill="#434955" d="M-91.927,53.287c0-3.408,0.648-6.884,1.947-10.428c1.299-3.545,3.148-6.902,5.544-10.067
		c2.396-3.167,5.284-5.995,8.662-8.479c3.383-2.488,7.154-4.372,11.313-5.658c-2.142-1.741-4.147-3.572-6.014-5.489
		c-1.869-1.919-3.496-3.88-4.884-5.887c-1.387-2.006-2.477-4.024-3.271-6.057c-0.797-2.033-1.19-4.058-1.19-6.074
		c0-2.607,0.283-5.087,0.853-7.438c0.568-2.35,1.347-4.528,2.343-6.534c0.999-2.005,2.177-3.82,3.539-5.442s2.828-3.002,4.389-4.141
		c1.564-1.136,3.198-2.013,4.901-2.627c1.7-0.612,3.41-0.919,5.125-0.919c2.271,0,4.46,0.586,6.566,1.759
		c2.108,1.172,3.979,3.034,5.617,5.586c1.64,2.553,2.954,5.853,3.935,9.909c0.984,4.055,1.476,8.952,1.476,14.691
		c0,1.728-0.248,4.841-0.735,9.335c-0.489,4.495-0.945,8.805-1.372,12.936c1.536,0.966,3.097,1.902,4.673,2.816
		c1.574,0.912,3.171,1.828,4.786,2.738c0.325,0.204,0.739,0.444,1.228,0.725c0.492,0.279,0.968,0.576,1.44,0.895
		c0.467,0.318,0.863,0.636,1.191,0.949c0.325,0.318,0.489,0.602,0.489,0.857c0,0.258-0.108,0.502-0.323,0.744
		c-0.215,0.24-0.467,0.471-0.757,0.684c-0.288,0.217-0.58,0.401-0.87,0.549c-0.288,0.154-0.51,0.27-0.661,0.346
		c-0.431,0.228-0.984,0.344-1.665,0.344c-1.412-0.025-3.072-0.303-4.974-0.832c-1.907-0.527-3.847-1.275-5.824-2.232
		c-1.11,4.664-2.439,8.93-3.99,12.798c-1.549,3.87-3.247,7.347-5.088,10.418c-1.841,3.075-3.788,5.755-5.844,8.036
		c-2.056,2.281-4.14,4.18-6.243,5.691c-2.106,1.51-4.199,2.644-6.283,3.399c-2.081,0.757-4.081,1.136-5.996,1.136
		c-1.993,0-3.841-0.404-5.544-1.212c-1.702-0.804-3.183-2.007-4.444-3.604s-2.252-3.581-2.972-5.948
		C-91.567,59.191-91.927,56.435-91.927,53.287z M-82.24,55.711c0,2.574,0.499,4.521,1.495,5.85c0.996,1.324,2.315,1.986,3.955,1.986
		c1.665,0,3.552-0.732,5.655-2.196c2.106-1.462,4.22-3.728,6.339-6.796c2.121-3.065,4.145-6.957,6.074-11.678
		c1.929-4.717,3.562-10.331,4.898-16.842l-1.399-0.871c-2.573,0.506-5.025,1.383-7.358,2.631c-2.333,1.252-4.503,2.732-6.51,4.447
		c-2.003,1.721-3.814,3.605-5.428,5.66c-1.615,2.056-2.997,4.133-4.145,6.227c-1.145,2.093-2.028,4.141-2.646,6.152
		C-81.931,52.286-82.24,54.097-82.24,55.711z M-70.131-7.286c0,2.018,0.439,4.024,1.322,6.016c0.88,1.992,2.116,3.967,3.702,5.92
		c1.59,1.955,3.479,3.889,5.671,5.809c2.194,1.917,4.611,3.808,7.26,5.676c0.292-3.524,0.603-7.215,0.928-11.079
		s0.489-7.975,0.489-12.339c0-2.975-0.189-5.492-0.57-7.548c-0.378-2.055-0.888-3.727-1.531-5.013
		c-0.644-1.287-1.4-2.213-2.271-2.782c-0.87-0.567-1.783-0.851-2.742-0.851c-0.933,0-1.882,0.227-2.84,0.68
		c-0.958,0.456-1.89,1.078-2.8,1.874c-0.908,0.795-1.766,1.723-2.573,2.781c-0.805,1.059-1.508,2.188-2.098,3.387
		c-0.593,1.198-1.067,2.433-1.418,3.706C-69.954-9.775-70.131-8.52-70.131-7.286z"/>
	<path fill="#434955" d="M-22.781,43.568c-2.355,0-4.417-0.439-6.185-1.312c-1.766-0.873-3.239-2.047-4.417-3.521
		c-1.178-1.475-2.061-3.183-2.649-5.122c-0.59-1.939-0.885-3.976-0.885-6.106c0-1.393,0.264-3.055,0.792-4.984
		c0.527-1.93,1.072-3.641,1.637-5.135c0.562-1.493,1.273-2.918,2.126-4.274c0.855-1.357,1.852-2.552,2.994-3.585
		c1.141-1.033,2.419-1.855,3.836-2.465c1.418-0.609,2.994-0.914,4.725-0.914c1.413,0,2.727,0.227,3.939,0.682
		c1.211,0.452,2.268,1.087,3.163,1.908c0.896,0.819,1.6,1.81,2.104,2.966c0.503,1.158,0.757,2.457,0.757,3.893
		c0,1.529-0.512,3.244-1.538,5.143c-1.021,1.898-2.218,3.527-3.582,4.886c-1.365,1.355-2.989,2.564-4.871,3.627
		c-1.884,1.059-3.925,1.883-6.124,2.477c0.378,0.665,0.754,1.221,1.12,1.664c0.369,0.443,0.742,0.793,1.123,1.037
		c0.378,0.248,0.779,0.42,1.195,0.518c0.417,0.101,0.866,0.148,1.347,0.148c1.514,0,3.111-0.295,4.788-0.889
		c1.675-0.592,3.312-1.334,4.898-2.219c1.59-0.885,3.09-1.856,4.502-2.906c1.413-1.047,2.611-2.041,3.597-2.979l4.881,4.959
		c-2.22,2.361-4.578,4.454-7.075,6.273c-1.085,0.779-2.252,1.545-3.498,2.297c-1.249,0.752-2.561,1.424-3.936,2.008
		s-2.8,1.049-4.275,1.402C-19.764,43.395-21.267,43.568-22.781,43.568z M-27.833,25.549c0.911,0,1.904-0.228,2.979-0.685
		c1.075-0.456,2.078-1.042,3.002-1.758c0.923-0.714,1.829-1.675,2.717-2.883c0.885-1.21,1.329-2.21,1.329-2.997
		c0-1.111-0.209-2.023-0.628-2.738c-0.418-0.715-0.931-1.075-1.539-1.075c-1.087,0-2.021,0.199-2.792,0.591
		c-0.772,0.393-1.417,0.907-1.938,1.535c-0.52,0.629-0.938,1.343-1.254,2.145c-0.317,0.804-0.684,1.796-1.103,2.979
		c-0.418,1.183-0.65,2.156-0.703,2.921C-27.812,24.35-27.833,25.004-27.833,25.549z"/>
	<path fill="#434955" d="M35.929,35.693c-1.789,1.473-3.557,2.785-5.297,3.938c-0.732,0.482-1.501,0.959-2.309,1.426
		c-0.809,0.469-1.602,0.882-2.386,1.245c-0.781,0.363-1.541,0.656-2.278,0.884c-0.739,0.227-1.412,0.342-2.027,0.342
		c-0.361,0-0.896-0.08-1.607-0.241c-0.709-0.161-1.483-0.489-2.323-0.984c-0.84-0.493-1.68-1.21-2.521-2.149
		c-0.837-0.938-1.565-2.184-2.186-3.738c-0.936,0.965-1.93,1.883-2.979,2.753c-1.046,0.87-2.136,1.626-3.264,2.271
		c-1.125,0.643-2.262,1.157-3.416,1.545c-1.15,0.389-2.308,0.586-3.471,0.586c-1.64,0-3.057-0.344-4.255-1.025
		c-1.201-0.68-2.197-1.588-2.989-2.721c-0.797-1.133-1.388-2.419-1.778-3.854c-0.389-1.437-0.585-2.923-0.585-4.456
		c0-1.641,0.209-3.297,0.625-4.975C-8.7,24.863-8.095,23.235-7.3,21.66c0.795-1.574,1.675-3.22,2.646-4.934
		c0.971-1.716,2.258-3.278,3.86-4.686c1.602-1.409,3.246-2.472,4.939-3.189c1.689-0.717,3.493-1.164,5.41-1.345
		c0.075-3.278,0.424-6.165,1.044-8.663s1.289-5.184,2-8.059c0.714-2.877,1.637-5.525,2.764-7.948
		c1.13-2.422,2.367-4.515,3.714-6.279c1.344-1.767,2.774-3.146,4.301-4.143c1.523-0.996,3.092-1.496,4.717-1.496
		c1.186,0,2.197,0.311,3.029,0.928c0.83,0.62,1.506,1.441,2.022,2.463c0.521,1.023,0.891,2.212,1.118,3.563
		c0.227,1.351,0.34,2.748,0.34,4.186c0,0.899-0.008,1.826-0.026,2.774c-0.073,3.621-0.63,6.992-1.677,10.112
		c-1.045,3.12-2.079,6.204-3.101,9.252c-1.021,3.048-2.254,6.064-3.695,9.048c-2.201,4.567-3.607,7.663-4.21,9.3
		c-0.131,0.354-0.264,0.787-0.393,1.297s-0.255,1.064-0.374,1.664s-0.214,1.211-0.295,1.836c-0.078,0.626-0.116,1.23-0.116,1.816
		c0,0.742,0.043,1.44,0.129,2.104c0.086,0.666,0.227,1.256,0.424,1.779c0.197,0.523,0.459,0.936,0.792,1.243
		c0.336,0.302,0.744,0.458,1.236,0.458c0.479,0,1.001-0.095,1.569-0.287c0.57-0.191,1.168-0.451,1.799-0.781
		c0.631-0.333,1.269-0.707,1.912-1.125c0.643-0.424,1.269-0.849,1.872-1.282c1.387-1.017,2.839-2.174,4.354-3.47L35.929,35.693z
		 M9.703,13.35c-1.667,0.814-3.147,1.889-4.446,3.224c-1.299,1.336-2.384,3.097-3.254,5.285c-0.87,2.187-1.532,4.067-1.985,5.647
		c-0.457,1.574-0.684,3.001-0.684,4.27c0,0.396,0.058,0.789,0.171,1.187c0.114,0.396,0.323,0.751,0.626,1.066
		c0.299,0.315,0.729,0.575,1.286,0.769c0.555,0.199,1.271,0.299,2.157,0.299c0.454,0,0.9-0.101,1.344-0.303
		c0.442-0.199,0.863-0.465,1.269-0.787c0.404-0.323,0.788-0.693,1.156-1.107c0.365-0.414,0.699-0.848,1.003-1.291
		c0.709-1.03,1.352-2.195,1.932-3.491c-0.078-0.356-0.141-0.919-0.191-1.694c-0.05-0.778-0.091-1.961-0.116-3.553
		c-0.025-1.588-0.051-2.892-0.075-3.91c-0.025-1.017-0.046-1.945-0.056-2.785c-0.013-0.839-0.03-1.525-0.058-2.061
		C9.752,13.579,9.726,13.323,9.703,13.35z M27.55-12.464c0.159-1.767,0.237-3.167,0.237-4.203c0-1.361-0.124-2.31-0.369-2.839
		c-0.245-0.528-0.595-0.795-1.057-0.795c-0.819,0-1.563,0.512-2.229,1.532c-0.668,1.02-1.203,2.337-1.609,3.952
		s-0.848,3.366-1.324,5.259c-0.477,1.893-0.822,3.748-1.042,5.564c-0.22,1.814-0.396,3.451-0.527,4.907
		c-0.131,1.457-0.224,2.492-0.282,3.106c-0.108,1.254-0.199,2.462-0.268,3.625c-0.068,1.162-0.116,2.224-0.146,3.182
		c-0.028,0.958-0.041,1.795-0.041,2.511c0,0.715,0,1.265,0,1.647v0.382c1.402-3.359,2.694-6.707,3.877-10.042
		c0.492-1.421,0.977-2.906,1.461-4.448c0.479-1.546,0.956-3.074,1.43-4.593c0.472-1.52,0.873-3.021,1.201-4.512
		C27.191-9.711,27.421-11.126,27.55-12.464z"/>
	<path fill="#434955" d="M33.802,35.66c0-1.664,0.101-3.586,0.303-5.769c0.201-2.185,0.456-4.577,0.757-7.188
		c0.302-2.612,0.643-4.962,1.023-7.058c0.379-2.094,0.744-3.885,1.098-5.372c0.277-1.16,0.815-2.131,1.609-2.914
		c0.794-0.782,1.872-1.172,3.234-1.172c1.362,0,2.308,0.415,2.837,1.247c0.529,0.832,0.797,1.942,0.797,3.33
		c0,0.377-0.04,0.888-0.113,1.53c-0.076,0.644-0.172,1.349-0.285,2.119c-0.113,0.77-0.232,1.563-0.358,2.384
		c-0.126,0.821-0.247,1.753-0.36,2.8c-0.113,1.045-0.209,1.828-0.282,2.345c-0.076,0.518-0.114,0.863-0.114,1.041h0.756
		c0.152-0.276,0.389-0.727,0.717-1.343c0.328-0.618,0.707-1.507,1.135-2.67c0.429-1.161,0.888-2.186,1.382-3.083
		c0.492-0.896,0.954-1.754,1.383-2.573c0.428-0.818,0.817-1.545,1.172-2.174c0.354-0.631,0.615-1.099,0.795-1.4
		c0.804-1.361,1.728-2.296,2.762-2.799c1.032-0.504,2.182-0.757,3.443-0.757c1.258,0,2.264,0.529,3.009,1.588
		c0.744,1.06,1.114,2.524,1.114,4.39c0,0.276-0.057,0.744-0.171,1.399c-0.112,0.656-0.257,1.438-0.434,2.345
		c-0.175,0.906-0.37,2.082-0.585,3.519c-0.215,1.436-0.411,2.723-0.588,3.858c-0.174,1.135-0.322,2.258-0.434,3.369
		s-0.169,2.129-0.169,3.064c0,1.562,0.196,2.854,0.585,3.86c0.391,1.007,1.004,1.513,1.834,1.513c0.303,0,0.732-0.112,1.285-0.34
		c0.834-0.303,1.363-0.57,1.59-0.798c1.11-0.856,1.69-1.271,1.74-1.245c0.076,0.025,0.922-0.479,2.535-1.514
		c2.016-1.287,4.428-2.863,7.227-4.729l-0.039,8.473l-1.891,1.44c-0.15,0.125-1.338,0.781-3.557,1.967
		c-3.203,1.715-5.21,2.748-6.016,3.103c-1.967,0.884-3.19,1.389-3.67,1.515c-1.261,0.402-2.585,0.602-3.973,0.602
		s-2.555-0.998-3.501-3.006c-0.943-2.008-1.417-4.939-1.417-8.799c0-1.514,0.1-3.145,0.302-4.898
		c0.202-1.755,0.454-3.642,0.757-5.657h-0.605L42.51,40.875c-0.529,1.059-1.097,1.768-1.7,2.118
		c-0.63,0.378-1.362,0.569-2.197,0.569c-1.031,0-1.866-0.221-2.497-0.66c-0.631-0.443-1.116-1.034-1.458-1.778
		c-0.34-0.744-0.568-1.589-0.681-2.536C33.863,37.645,33.802,36.666,33.802,35.66z"/>
	<path fill="#434955" d="M93.735,14.395c0.73,1.462,1.281,3.009,1.647,4.634c0.363,1.626,0.546,3.462,0.546,5.506
		c0,1.488-0.164,2.984-0.492,4.5c-0.326,1.516-0.798,2.977-1.416,4.389s-1.375,2.738-2.271,3.975
		c-0.896,1.234-1.917,2.308-3.067,3.213c-1.146,0.908-2.4,1.631-3.766,2.159c-1.363,0.527-2.812,0.792-4.352,0.792
		c-2.221,0-4.117-0.482-5.695-1.454s-2.871-2.238-3.877-3.802c-1.006-1.564-1.746-3.329-2.215-5.298
		c-0.467-1.968-0.699-3.96-0.699-5.978c0-3.33,0.416-6.199,1.248-8.608c0.831-2.411,2.023-4.503,3.574-6.282
		c1.551-1.78,3.449-3.177,5.697-4.2c2.247-1.022,4.767-1.531,7.567-1.531c2.396,0,4.641,0.372,6.733,1.116
		c2.092,0.744,4.054,1.74,5.883,2.988c1.828,1.248,3.532,2.819,5.109,4.712c1.578,1.893,3.046,3.695,4.41,5.41l-0.719,5.333
		c-0.681-0.906-1.602-1.889-2.762-2.95c-1.158-1.062-2.39-2.232-3.688-3.52c-1.299-1.286-2.581-2.376-3.842-3.272
		c-1.259-0.896-2.344-1.645-3.254-2.251L93.735,14.395z M82.047,36.303c0.856,0,1.688-0.434,2.496-1.303
		c0.808-0.871,1.513-1.968,2.12-3.292c0.602-1.321,1.09-2.927,1.454-4.804c0.369-1.876,0.548-3.551,0.548-5.014
		c0-1.158-0.088-2.238-0.266-3.233c-0.178-0.994-0.44-1.859-0.797-2.591c-0.353-0.73-0.804-1.312-1.359-1.74
		c-0.555-0.429-1.226-0.643-2.005-0.643c-1.031,0-2.019,0.441-2.952,1.325c-0.936,0.884-1.754,2.012-2.459,3.387
		c-0.706,1.374-1.262,2.895-1.667,4.559c-0.403,1.662-0.603,3.543-0.603,5.638c0,1.06,0.1,2.058,0.303,2.991
		c0.199,0.93,0.514,1.744,0.943,2.439c0.429,0.693,0.998,1.248,1.703,1.666C80.213,36.107,81.062,36.303,82.047,36.303z"/>
	<path fill="#434955" d="M134.563,35.094c-2.428,1.412-4.587,2.648-6.479,3.707c-1.894,1.064-3.581,1.942-5.058,2.648
		c-1.478,0.706-2.792,1.236-3.938,1.59c-1.148,0.35-2.193,0.529-3.127,0.529c-1.906,0-3.587-0.58-5.045-1.741
		c-1.457-1.16-2.67-2.831-3.65-5.015c-0.979-2.184-1.712-4.824-2.198-7.924c-0.489-3.104-0.733-6.6-0.733-10.483
		c0-1.514,0.06-3.128,0.188-4.844c0.123-1.715,0.298-3.417,0.521-5.108c-0.762-0.111-1.353-0.218-1.77-0.316
		c-0.419-0.098-0.862-0.197-1.333-0.293c-0.472-0.099-1.066-0.205-1.79-0.318c-0.724-0.111-1.771-0.253-3.141-0.421
		c-0.61-0.083-1.079-0.246-1.411-0.483c-0.326-0.241-0.572-0.52-0.723-0.842c-0.151-0.323-0.239-0.659-0.266-1.013
		c-0.027-0.35-0.039-0.65-0.039-0.905c0-0.398,0.247-0.701,0.74-0.912c0.496-0.211,1.131-0.367,1.902-0.47
		c0.771-0.104,1.623-0.163,2.545-0.176c0.926-0.014,1.814-0.006,2.664,0.018c0.851,0.022,1.612,0.045,2.283,0.057
		c0.672,0.012,1.135-0.005,1.387-0.057c0.682-3.394,1.545-6.684,2.588-9.863c1.044-3.184,2.215-6.014,3.514-8.49
		c1.297-2.478,2.711-4.467,4.248-5.962c1.538-1.496,3.148-2.245,4.836-2.245c1.084,0,2.078,0.303,2.973,0.909
		c0.896,0.605,1.657,1.41,2.291,2.42c0.631,1.008,1.119,2.186,1.458,3.534c0.339,1.349,0.513,2.753,0.513,4.215
		c0,1.209-0.178,2.484-0.53,3.83c-0.36,1.35-0.839,2.721-1.446,4.113c-0.602,1.393-1.316,2.805-2.139,4.239
		c-0.82,1.43-1.683,2.851-2.592,4.257c0.227-0.083,0.607-0.101,1.137-0.05c0.529,0.052,1.141,0.087,1.834,0.109
		c0.691,0.02,1.442,0.041,2.252,0.06c0.808,0.018,1.587,0.044,2.346,0.066c0.758,0.023,1.461,0.052,2.117,0.076
		c0.656,0.023,1.197,0.05,1.627,0.075c0.504,0.028,0.87,0.31,1.1,0.841c0.228,0.532,0.34,1.207,0.34,2.023
		c0,0.943-0.254,1.71-0.757,2.302c-0.504,0.591-1.061,0.888-1.667,0.888h-14.545c-0.734,1.01-1.475,2-2.223,2.971
		s-1.439,1.846-2.072,2.629c-0.101,1.562-0.188,3.102-0.265,4.615c-0.028,0.657-0.053,1.331-0.076,2.023
		c-0.022,0.697-0.053,1.383-0.075,2.063c-0.023,0.679-0.042,1.338-0.055,1.968c-0.014,0.632-0.018,1.212-0.018,1.74
		c0,1.362,0.125,2.513,0.377,3.444c0.252,0.933,0.621,1.697,1.104,2.287c0.482,0.592,1.069,1.024,1.768,1.287
		c0.696,0.265,1.473,0.398,2.334,0.398c0.529,0,1.195-0.127,1.989-0.379c0.796-0.253,1.665-0.599,2.613-1.039
		c0.949-0.444,1.942-0.966,2.991-1.572c1.051-0.602,2.082-1.269,3.105-1.984c1.022-0.72,2.001-1.476,2.938-2.271
		c0.933-0.797,1.779-1.607,2.537-2.441V35.094L134.563,35.094z M122.453-12.82c0-0.277-0.018-0.584-0.056-0.923
		c-0.041-0.338-0.121-0.658-0.25-0.961c-0.127-0.302-0.322-0.553-0.588-0.754c-0.267-0.201-0.639-0.299-1.117-0.299
		c-0.661,0-1.326,0.577-1.996,1.728c-0.668,1.151-1.316,2.624-1.936,4.411c-0.621,1.79-1.205,3.764-1.746,5.918
		c-0.545,2.151-1.045,4.244-1.5,6.271c0.377,0.038,0.758,0.07,1.137,0.098c0.381,0.028,0.774,0.062,1.178,0.098
		c0.76-1.27,1.554-2.647,2.374-4.13c0.821-1.482,1.563-2.941,2.222-4.373c0.658-1.434,1.203-2.771,1.635-4.019
		C122.237-11.002,122.453-12.023,122.453-12.82z"/>
	<path fill="#434955" d="M143.792,22.711c0.91-1.181,1.905-2.478,2.989-3.89c1.084-1.412,2.151-2.76,3.198-4.044
		s2.099-2.618,3.158-4.006c1.061-1.387,1.841-2.259,2.346-2.619c0.783-0.565,1.74-1.046,2.876-1.446
		c1.132-0.397,2.396-0.597,3.784-0.597c0.705,0,1.381,0.167,2.025,0.502c0.643,0.333,1.203,0.808,1.682,1.425
		c0.482,0.618,0.858,1.361,1.135,2.235c0.277,0.872,0.416,1.847,0.416,2.926c0,1.054-0.346,2.307-1.041,3.756
		c-0.694,1.449-1.418,2.714-2.174,3.791c-0.758,1.076-1.578,2.156-2.459,3.235c-0.884,1.073-1.704,2.163-2.46,3.253
		c-0.757,1.09-1.388,2.174-1.89,3.254c-0.504,1.081-0.758,2.158-0.758,3.234c0,0.926,0.221,1.586,0.662,1.983
		c0.441,0.398,1.127,0.598,2.061,0.598c0.505,0,1.055-0.175,1.645-0.517c0.594-0.35,1.203-0.807,1.834-1.369
		c0.63-0.563,1.269-1.195,1.912-1.887c0.643-0.695,1.261-1.398,1.854-2.117c0.596-0.717,1.156-1.404,1.686-2.059
		c0.529-0.656,1.009-1.216,1.438-1.676l2.27,9.434c-0.781,1.064-1.77,2.049-2.968,2.955c-1.198,0.904-2.497,1.697-3.897,2.368
		c-1.399,0.671-2.853,1.195-4.354,1.573c-1.5,0.377-2.943,0.565-4.33,0.565c-1.816,0-3.301-0.206-4.446-0.618
		c-1.147-0.413-2.048-0.958-2.706-1.639c-0.656-0.685-1.103-1.451-1.342-2.313c-0.24-0.858-0.358-1.746-0.358-2.665
		c0-0.588,0.069-1.311,0.21-2.174c0.139-0.856,0.4-1.826,0.793-2.906c0.392-1.073,0.942-2.264,1.646-3.558
		c0.706-1.296,1.628-2.687,2.763-4.181c0.454-0.461,0.87-0.877,1.245-1.248c0.38-0.371,0.708-0.706,0.987-1.002
		c0.277-0.297,0.489-0.572,0.643-0.827c0.151-0.258,0.228-0.526,0.228-0.808c0-0.541-0.097-0.976-0.286-1.311
		c-0.188-0.335-0.458-0.5-0.811-0.5c-0.43,0-0.988,0.281-1.669,0.848c-0.706,0.592-1.45,1.581-2.231,2.965l-11.123,19.436
		c-0.607,0.915-1.212,1.562-1.816,1.937c-0.605,0.379-1.312,0.565-2.12,0.565c-1.084,0-1.94-0.22-2.572-0.661
		c-0.628-0.439-1.11-1.031-1.437-1.777c-0.328-0.748-0.538-1.615-0.627-2.6c-0.088-0.982-0.131-2.034-0.131-3.148
		c0-1.461,0.053-3.398,0.15-5.807c0.102-2.413,0.256-5.059,0.457-7.941c0.203-2.886,0.473-5.902,0.812-9.056
		c0.341-3.154,0.752-6.218,1.231-9.19c0.183-1.022,0.416-2.272,0.688-3.756c0.275-1.481,0.643-3.061,1.107-4.734
		c0.466-1.674,0.955-3.436,1.471-5.279c0.514-1.844,1.143-3.628,1.887-5.352c0.746-1.723,1.58-3.366,2.517-4.924
		c0.937-1.56,1.98-2.924,3.144-4.094c1.163-1.171,2.436-2.095,3.826-2.774c1.387-0.679,2.903-1.021,4.543-1.021
		c1.285,0,2.346,0.209,3.176,0.623c0.832,0.416,1.495,0.991,1.987,1.733c0.489,0.741,0.841,1.624,1.042,2.654
		c0.199,1.029,0.3,2.146,0.3,3.352c0,2.159-0.27,4.48-0.812,6.97c-0.542,2.491-1.232,4.986-2.061,7.482
		c-0.832,2.503-1.74,4.934-2.729,7.295c-0.982,2.361-1.929,4.494-2.837,6.398c-0.908,1.903-1.71,3.51-2.401,4.816
		c-0.695,1.307-1.155,2.165-1.383,2.573l-4.501,6.782L143.792,22.711z M151.194-20.07c-0.815,0-1.52,0.253-2.107,0.753
		c-0.59,0.501-1.146,1.22-1.673,2.15c-0.524,0.929-1.049,2.063-1.571,3.396c-0.525,1.333-1.119,2.818-1.786,4.453
		c-0.357,1.467-0.731,2.98-1.108,4.535c-0.381,1.555-0.688,3.094-0.919,4.619c-0.233,1.523-0.46,3.022-0.681,4.496
		c-0.225,1.476-0.433,2.856-0.629,4.144c-0.378,3.177-0.682,6.305-0.911,9.382c0.556-1.69,1.163-3.526,1.827-5.51
		c0.663-1.984,1.319-3.941,1.97-5.874c0.649-1.932,1.259-3.75,1.834-5.452c0.573-1.703,1.052-3.147,1.433-4.332
		c0.179-0.555,0.431-1.247,0.765-2.081c0.333-0.835,0.691-1.729,1.072-2.687c0.382-0.958,0.763-1.956,1.147-2.989
		c0.381-1.034,0.733-2.031,1.051-2.988c0.318-0.958,0.578-1.855,0.783-2.686c0.203-0.833,0.307-1.54,0.307-2.119
		C152.002-19.668,151.732-20.07,151.194-20.07z"/>
	<path fill="#434955" d="M208.073,34.189c-0.583,0.817-1.356,1.773-2.328,2.871c-0.971,1.1-2.061,2.145-3.271,3.138
		c-1.213,0.995-2.513,1.837-3.896,2.526c-1.388,0.691-2.775,1.035-4.162,1.035c-1.676,0-3.073-0.529-4.192-1.594
		c-1.124-1.06-2.089-2.604-2.901-4.623c-0.609,0.698-1.361,1.408-2.25,2.131c-0.89,0.724-1.861,1.383-2.916,1.967
		c-1.057,0.586-2.154,1.066-3.3,1.44c-1.143,0.376-2.286,0.562-3.433,0.562c-1.211,0-2.389-0.249-3.535-0.745
		c-1.148-0.496-2.166-1.209-3.047-2.141c-0.884-0.926-1.59-2.059-2.117-3.395c-0.53-1.337-0.797-2.846-0.797-4.523
		c0-1.883,0.267-3.821,0.801-5.807c0.533-1.984,1.355-4.133,2.477-6.446c1.114-2.314,2.312-4.311,3.596-5.995
		c1.281-1.684,2.684-3.154,4.205-4.411c1.521-1.258,3.128-2.258,4.815-2.999c1.685-0.741,3.403-1.114,5.157-1.114
		c0.584,0,1.041,0.115,1.369,0.344c0.332,0.23,0.602,0.491,0.818,0.784c0.215,0.294,0.426,0.58,0.629,0.86
		c0.203,0.281,0.457,0.484,0.762,0.612c0.305,0.126,0.615,0.209,0.933,0.249c0.317,0.037,0.64,0.055,0.972,0.055
		c0.276,0,0.562-0.005,0.855-0.018c0.289-0.013,0.576-0.02,0.856-0.02c0.38,0,0.733,0.037,1.065,0.113
		c0.329,0.077,0.621,0.242,0.874,0.498c0.253,0.256,0.45,0.611,0.589,1.071c0.138,0.459,0.209,1.083,0.209,1.874
		c0,1.205-0.127,2.543-0.379,4.013c-0.249,1.471-0.539,2.977-0.864,4.518s-0.697,3.302-1.113,5.274s-0.626,3.638-0.626,4.99
		c0,1.16,0.109,2.062,0.324,2.713c0.214,0.651,0.676,0.977,1.381,0.977c0.531,0,1.086-0.133,1.668-0.395
		c0.581-0.259,1.166-0.607,1.759-1.031c0.591-0.423,1.185-0.904,1.775-1.442c0.593-0.538,1.155-1.093,1.685-1.667
		c1.239-1.35,2.484-2.875,3.746-4.576L208.073,34.189z M175.612,31.229c0,0.648,0.045,1.282,0.132,1.892
		c0.088,0.61,0.246,1.16,0.476,1.641c0.228,0.483,0.531,0.87,0.908,1.169c0.379,0.299,0.86,0.449,1.443,0.449
		c0.934,0,1.778-0.405,2.537-1.22c0.758-0.81,1.415-1.788,1.973-2.931c0.556-1.142,1.004-2.322,1.346-3.543
		c0.34-1.22,0.559-2.234,0.662-3.049l2.82-12.299c-1.032,0-2.043,0.255-3.027,0.769c-0.982,0.512-1.908,1.206-2.781,2.082
		c-0.871,0.875-1.67,1.876-2.401,3.001c-0.732,1.126-1.45,2.516-2.157,4.164c-0.703,1.65-1.203,3.098-1.496,4.348
		C175.756,28.954,175.612,30.129,175.612,31.229z"/>
</g>
</svg>
