<?xml version="1.0" encoding="utf-8"?>
<!-- Generator: Adobe Illustrator 16.0.0, SVG Export Plug-In . SVG Version: 6.00 Build 0)  -->
<!DOCTYPE svg PUBLIC "-//W3C//DTD SVG 1.1//EN" "http://www.w3.org/Graphics/SVG/1.1/DTD/svg11.dtd">
<svg version="1.1" id="Layer_1" xmlns="http://www.w3.org/2000/svg" xmlns:xlink="http://www.w3.org/1999/xlink" x="0px" y="0px"
	 width="116.146px" height="40.371px" viewBox="0 0 116.146 40.371" style="enable-background:new 0 0 116.146 40.371;"
	 xml:space="preserve">
<g>
	<path style="fill:#FFFFFF;" d="M0,33.001c0-1.319,0.251-2.665,0.754-4.037s1.218-2.672,2.146-3.898s2.046-2.321,3.354-3.283
		c1.309-0.962,2.769-1.692,4.38-2.19c-0.83-0.674-1.606-1.383-2.329-2.125c-0.723-0.743-1.353-1.502-1.89-2.279
		s-0.959-1.558-1.267-2.345s-0.461-1.571-0.461-2.352c0-1.009,0.11-1.969,0.33-2.879s0.522-1.753,0.908-2.53
		c0.386-0.776,0.842-1.479,1.37-2.107c0.527-0.628,1.094-1.162,1.699-1.603c0.605-0.44,1.238-0.779,1.897-1.017
		C11.55,0.119,12.212,0,12.876,0c0.879,0,1.726,0.227,2.542,0.681s1.541,1.175,2.175,2.163s1.143,2.266,1.523,3.836
		c0.381,1.57,0.571,3.466,0.571,5.688c0,0.669-0.095,1.874-0.284,3.614c-0.189,1.74-0.366,3.409-0.531,5.008
		c0.595,0.374,1.199,0.737,1.809,1.09c0.61,0.354,1.228,0.708,1.853,1.061c0.126,0.079,0.286,0.172,0.476,0.28
		s0.375,0.224,0.557,0.346c0.181,0.123,0.334,0.246,0.461,0.368c0.126,0.123,0.19,0.233,0.19,0.332c0,0.099-0.042,0.194-0.125,0.288
		c-0.083,0.093-0.181,0.182-0.293,0.265c-0.112,0.083-0.225,0.155-0.337,0.213c-0.112,0.059-0.198,0.104-0.256,0.133
		c-0.167,0.088-0.381,0.133-0.645,0.133c-0.547-0.01-1.189-0.117-1.926-0.322c-0.738-0.205-1.489-0.494-2.254-0.865
		c-0.43,1.806-0.945,3.458-1.545,4.956s-1.257,2.843-1.97,4.033s-1.467,2.228-2.263,3.111c-0.796,0.883-1.602,1.618-2.417,2.203
		s-1.626,1.024-2.432,1.317s-1.58,0.439-2.322,0.439c-0.771,0-1.487-0.156-2.146-0.468c-0.659-0.312-1.233-0.778-1.721-1.396
		c-0.488-0.619-0.872-1.387-1.15-2.303C0.139,35.287,0,34.22,0,33.001z M3.75,33.939c0,0.997,0.193,1.751,0.579,2.265
		c0.386,0.513,0.896,0.769,1.531,0.769c0.645,0,1.375-0.283,2.19-0.85c0.815-0.567,1.633-1.444,2.454-2.631s1.604-2.694,2.351-4.521
		s1.379-4,1.897-6.521l-0.542-0.337c-0.996,0.195-1.946,0.535-2.849,1.019s-1.743,1.058-2.52,1.722
		c-0.776,0.665-1.477,1.395-2.102,2.191c-0.625,0.796-1.16,1.6-1.604,2.41c-0.444,0.811-0.786,1.604-1.025,2.382
		C3.87,32.613,3.75,33.314,3.75,33.939z M8.438,9.55c0,0.781,0.17,1.558,0.512,2.329c0.341,0.771,0.819,1.536,1.434,2.292
		c0.615,0.757,1.346,1.506,2.195,2.249c0.849,0.742,1.785,1.474,2.81,2.197c0.114-1.364,0.234-2.793,0.36-4.289
		s0.189-3.088,0.189-4.777c0-1.152-0.073-2.126-0.22-2.922s-0.344-1.443-0.593-1.941s-0.542-0.857-0.879-1.077
		s-0.691-0.33-1.062-0.33c-0.361,0-0.728,0.088-1.099,0.264s-0.732,0.417-1.084,0.725s-0.684,0.667-0.996,1.077
		S9.421,6.194,9.192,6.658S8.779,7.6,8.643,8.093S8.438,9.072,8.438,9.55z"/>
	<path style="fill:#FFFFFF;" d="M26.77,29.238c-0.912,0-1.71-0.169-2.394-0.507c-0.684-0.338-1.254-0.793-1.71-1.364
		c-0.456-0.571-0.798-1.232-1.026-1.983s-0.342-1.539-0.342-2.364c0-0.54,0.102-1.183,0.306-1.93
		c0.204-0.747,0.415-1.41,0.634-1.988c0.218-0.578,0.493-1.13,0.823-1.655c0.331-0.525,0.717-0.988,1.159-1.388
		c0.442-0.4,0.937-0.718,1.486-0.954c0.549-0.236,1.159-0.354,1.829-0.354c0.547,0,1.056,0.088,1.525,0.264
		c0.469,0.175,0.878,0.421,1.225,0.739c0.347,0.317,0.619,0.7,0.814,1.148s0.293,0.951,0.293,1.507c0,0.592-0.198,1.256-0.595,1.991
		c-0.396,0.735-0.859,1.366-1.387,1.891c-0.528,0.525-1.157,0.993-1.886,1.404s-1.519,0.73-2.371,0.959
		c0.147,0.258,0.292,0.473,0.434,0.645s0.287,0.306,0.434,0.401c0.147,0.096,0.302,0.163,0.463,0.201s0.335,0.057,0.522,0.057
		c0.586,0,1.204-0.114,1.853-0.344c0.649-0.229,1.282-0.516,1.897-0.859s1.196-0.719,1.743-1.125s1.011-0.79,1.392-1.153l1.89,1.919
		c-0.859,0.915-1.772,1.725-2.739,2.429c-0.42,0.302-0.872,0.599-1.355,0.89s-0.991,0.551-1.523,0.777s-1.084,0.407-1.655,0.543
		S27.356,29.238,26.77,29.238z M24.814,22.262c0.353,0,0.738-0.088,1.154-0.265s0.804-0.403,1.162-0.68
		c0.357-0.277,0.708-0.649,1.051-1.117c0.343-0.468,0.515-0.855,0.515-1.16c0-0.43-0.081-0.783-0.243-1.06s-0.36-0.416-0.596-0.416
		c-0.421,0-0.782,0.077-1.081,0.229s-0.549,0.351-0.75,0.594c-0.201,0.244-0.363,0.52-0.485,0.831
		c-0.123,0.311-0.265,0.695-0.427,1.153c-0.162,0.458-0.252,0.835-0.272,1.131S24.814,22.051,24.814,22.262z"/>
	<path style="fill:#FFFFFF;" d="M49.5,26.19c-0.693,0.57-1.377,1.078-2.051,1.524c-0.283,0.187-0.581,0.371-0.894,0.552
		s-0.62,0.342-0.923,0.482s-0.597,0.254-0.882,0.342c-0.286,0.088-0.547,0.132-0.785,0.132c-0.14,0-0.347-0.031-0.622-0.093
		c-0.275-0.062-0.575-0.189-0.9-0.381c-0.325-0.192-0.65-0.469-0.975-0.832c-0.325-0.363-0.607-0.845-0.847-1.447
		c-0.362,0.373-0.747,0.728-1.153,1.065c-0.406,0.337-0.828,0.63-1.264,0.879c-0.436,0.249-0.876,0.449-1.322,0.599
		c-0.446,0.15-0.894,0.226-1.344,0.226c-0.635,0-1.184-0.132-1.648-0.396s-0.85-0.615-1.157-1.054
		c-0.308-0.438-0.537-0.936-0.688-1.492c-0.151-0.557-0.227-1.132-0.227-1.726c0-0.634,0.081-1.276,0.242-1.925
		s0.396-1.279,0.703-1.888c0.308-0.61,0.649-1.247,1.025-1.911s0.874-1.269,1.494-1.814c0.62-0.545,1.257-0.957,1.912-1.234
		c0.654-0.278,1.353-0.451,2.095-0.521c0.029-1.269,0.164-2.387,0.404-3.354c0.24-0.967,0.499-2.007,0.775-3.12
		c0.276-1.114,0.633-2.139,1.07-3.077s0.916-1.748,1.437-2.431c0.521-0.684,1.075-1.218,1.665-1.604s1.198-0.579,1.827-0.579
		c0.459,0,0.85,0.12,1.172,0.359c0.322,0.24,0.583,0.558,0.784,0.954s0.344,0.856,0.432,1.379s0.132,1.064,0.132,1.621
		c0,0.348-0.003,0.707-0.01,1.074c-0.028,1.402-0.244,2.707-0.649,3.915c-0.404,1.208-0.805,2.402-1.2,3.582
		c-0.396,1.18-0.873,2.348-1.431,3.503c-0.853,1.768-1.396,2.967-1.63,3.6c-0.051,0.138-0.102,0.306-0.152,0.503
		s-0.099,0.412-0.145,0.644c-0.046,0.232-0.083,0.469-0.114,0.711c-0.03,0.242-0.045,0.476-0.045,0.703
		c0,0.287,0.017,0.558,0.05,0.815s0.088,0.486,0.164,0.688c0.076,0.203,0.178,0.363,0.307,0.481s0.288,0.178,0.478,0.178
		c0.186,0,0.388-0.037,0.608-0.111c0.22-0.074,0.452-0.175,0.696-0.303s0.491-0.273,0.74-0.436s0.491-0.328,0.725-0.495
		c0.537-0.394,1.099-0.842,1.685-1.344L49.5,26.19z M39.346,17.539c-0.645,0.315-1.218,0.731-1.721,1.248
		c-0.503,0.517-0.923,1.199-1.26,2.046c-0.337,0.847-0.593,1.575-0.769,2.186c-0.176,0.61-0.264,1.162-0.264,1.654
		c0,0.153,0.022,0.306,0.066,0.459s0.125,0.291,0.242,0.413s0.283,0.222,0.498,0.298c0.215,0.077,0.493,0.115,0.835,0.115
		c0.176,0,0.349-0.039,0.521-0.117c0.171-0.078,0.334-0.18,0.491-0.305c0.156-0.125,0.305-0.269,0.447-0.429
		c0.142-0.16,0.271-0.327,0.389-0.5c0.274-0.398,0.523-0.849,0.748-1.351c-0.03-0.138-0.055-0.356-0.074-0.657
		c-0.02-0.3-0.035-0.758-0.045-1.374c-0.01-0.615-0.02-1.12-0.029-1.514c-0.01-0.394-0.018-0.753-0.022-1.078
		c-0.005-0.325-0.012-0.591-0.022-0.798C39.365,17.628,39.355,17.529,39.346,17.539z M46.256,7.545
		c0.061-0.684,0.091-1.226,0.091-1.627c0-0.527-0.047-0.894-0.142-1.099s-0.231-0.308-0.409-0.308c-0.318,0-0.606,0.198-0.864,0.593
		s-0.465,0.905-0.623,1.53c-0.157,0.625-0.328,1.303-0.512,2.036c-0.185,0.733-0.319,1.451-0.404,2.154
		c-0.085,0.703-0.153,1.336-0.204,1.9c-0.051,0.564-0.087,0.965-0.109,1.203c-0.042,0.485-0.077,0.953-0.104,1.403
		c-0.026,0.45-0.045,0.861-0.056,1.232c-0.011,0.371-0.016,0.695-0.016,0.972c0,0.277,0,0.49,0,0.638v0.148
		c0.543-1.301,1.043-2.597,1.501-3.888c0.19-0.55,0.378-1.125,0.565-1.722c0.186-0.598,0.371-1.19,0.554-1.778
		c0.183-0.588,0.338-1.17,0.465-1.747C46.117,8.611,46.206,8.063,46.256,7.545z"/>
	<path style="fill:#FFFFFF;" d="M48.677,26.177c0-0.645,0.039-1.389,0.117-2.234s0.176-1.772,0.293-2.783s0.249-1.921,0.396-2.732
		s0.288-1.504,0.425-2.08c0.107-0.449,0.315-0.825,0.623-1.128s0.725-0.454,1.252-0.454s0.894,0.161,1.099,0.483
		s0.308,0.752,0.308,1.289c0,0.146-0.015,0.344-0.044,0.593s-0.066,0.522-0.11,0.82s-0.09,0.605-0.139,0.923
		s-0.095,0.679-0.139,1.084s-0.081,0.708-0.11,0.908s-0.044,0.334-0.044,0.403h0.293c0.059-0.107,0.151-0.281,0.278-0.52
		s0.273-0.583,0.439-1.033s0.344-0.847,0.535-1.194s0.369-0.679,0.535-0.996s0.317-0.598,0.454-0.842s0.239-0.425,0.308-0.542
		c0.312-0.527,0.669-0.889,1.069-1.084s0.845-0.293,1.333-0.293s0.876,0.205,1.165,0.615s0.432,0.977,0.432,1.699
		c0,0.107-0.022,0.288-0.066,0.542s-0.1,0.557-0.168,0.908s-0.144,0.806-0.227,1.362s-0.159,1.055-0.227,1.494
		s-0.125,0.874-0.168,1.304s-0.066,0.825-0.066,1.187c0,0.605,0.076,1.104,0.227,1.494s0.388,0.586,0.71,0.586
		c0.117,0,0.283-0.044,0.498-0.132c0.322-0.117,0.527-0.22,0.615-0.308c0.43-0.332,0.654-0.493,0.674-0.483
		c0.029,0.01,0.356-0.186,0.981-0.586c0.781-0.498,1.714-1.108,2.798-1.831l-0.015,3.281l-0.732,0.557
		c-0.059,0.049-0.518,0.303-1.377,0.762c-1.24,0.664-2.017,1.064-2.329,1.201c-0.762,0.342-1.235,0.537-1.421,0.586
		c-0.488,0.156-1.001,0.234-1.538,0.234s-0.989-0.388-1.355-1.165s-0.549-1.912-0.549-3.406c0-0.586,0.039-1.218,0.117-1.897
		s0.176-1.409,0.293-2.19h-0.234l-3.838,7.617c-0.205,0.41-0.425,0.684-0.659,0.82c-0.244,0.146-0.527,0.22-0.85,0.22
		c-0.4,0-0.723-0.085-0.967-0.256s-0.432-0.4-0.564-0.688s-0.22-0.615-0.264-0.981S48.677,26.567,48.677,26.177z"/>
	<path style="fill:#FFFFFF;" d="M71.88,17.944c0.283,0.566,0.496,1.165,0.637,1.794s0.212,1.34,0.212,2.131
		c0,0.576-0.063,1.157-0.19,1.743s-0.31,1.152-0.549,1.699s-0.532,1.06-0.879,1.538s-0.742,0.894-1.187,1.245
		s-0.93,0.63-1.458,0.835s-1.089,0.308-1.685,0.308c-0.859,0-1.594-0.188-2.205-0.564s-1.111-0.867-1.501-1.472
		s-0.676-1.289-0.857-2.051s-0.271-1.533-0.271-2.314c0-1.289,0.161-2.4,0.483-3.333s0.784-1.743,1.384-2.432
		s1.335-1.23,2.205-1.626s1.846-0.593,2.93-0.593c0.928,0,1.797,0.144,2.607,0.432s1.57,0.674,2.278,1.157s1.367,1.091,1.978,1.824
		s1.179,1.431,1.707,2.095l-0.278,2.065c-0.264-0.352-0.62-0.732-1.069-1.143s-0.925-0.864-1.428-1.362s-0.999-0.92-1.487-1.267
		s-0.908-0.637-1.26-0.872L71.88,17.944z M67.354,26.426c0.332,0,0.654-0.168,0.967-0.505s0.586-0.762,0.82-1.274
		s0.422-1.133,0.564-1.86s0.212-1.375,0.212-1.941c0-0.449-0.034-0.867-0.103-1.252s-0.171-0.72-0.308-1.003
		s-0.312-0.508-0.527-0.674s-0.474-0.249-0.776-0.249c-0.4,0-0.781,0.171-1.143,0.513s-0.679,0.779-0.952,1.311
		s-0.488,1.121-0.645,1.765s-0.234,1.372-0.234,2.183c0,0.41,0.039,0.796,0.117,1.157s0.2,0.676,0.366,0.945
		s0.386,0.483,0.659,0.645S66.973,26.426,67.354,26.426z"/>
	<path style="fill:#FFFFFF;" d="M87.686,25.957c-0.939,0.547-1.775,1.025-2.508,1.436s-1.386,0.752-1.958,1.025
		s-1.081,0.479-1.525,0.615s-0.849,0.205-1.21,0.205c-0.738,0-1.389-0.225-1.953-0.674s-1.034-1.096-1.413-1.941
		s-0.663-1.868-0.852-3.069c-0.189-1.201-0.284-2.554-0.284-4.058c0-0.586,0.024-1.211,0.073-1.875
		c0.048-0.664,0.116-1.323,0.203-1.978c-0.295-0.043-0.524-0.084-0.686-0.122s-0.334-0.076-0.516-0.114
		c-0.182-0.038-0.413-0.079-0.693-0.123c-0.28-0.043-0.686-0.098-1.216-0.163c-0.236-0.032-0.418-0.095-0.546-0.187
		c-0.127-0.093-0.221-0.201-0.28-0.326c-0.059-0.125-0.093-0.255-0.103-0.392c-0.01-0.136-0.015-0.252-0.015-0.351
		c0-0.154,0.096-0.271,0.287-0.353s0.437-0.142,0.736-0.182s0.628-0.063,0.986-0.068s0.702-0.002,1.031,0.007
		s0.624,0.017,0.884,0.022c0.26,0.005,0.439-0.002,0.537-0.022c0.263-1.314,0.597-2.588,1.002-3.819
		c0.404-1.232,0.857-2.328,1.36-3.287c0.502-0.959,1.05-1.729,1.645-2.308s1.218-0.869,1.872-0.869c0.42,0,0.804,0.117,1.151,0.352
		c0.347,0.234,0.642,0.546,0.887,0.937c0.244,0.39,0.433,0.846,0.564,1.368s0.198,1.066,0.198,1.632
		c0,0.468-0.068,0.962-0.205,1.483C85,9.28,84.814,9.811,84.58,10.35s-0.51,1.086-0.828,1.641c-0.318,0.554-0.652,1.104-1.004,1.648
		c0.088-0.032,0.235-0.039,0.44-0.019c0.205,0.02,0.442,0.034,0.71,0.042s0.559,0.016,0.872,0.023s0.615,0.017,0.908,0.026
		s0.566,0.02,0.82,0.029s0.464,0.02,0.63,0.029c0.195,0.011,0.337,0.12,0.425,0.326s0.132,0.467,0.132,0.783
		c0,0.365-0.098,0.662-0.293,0.891s-0.411,0.344-0.645,0.344h-5.631c-0.285,0.391-0.571,0.774-0.861,1.15
		c-0.289,0.376-0.557,0.715-0.802,1.018c-0.039,0.605-0.073,1.201-0.103,1.787c-0.01,0.254-0.02,0.515-0.029,0.784
		s-0.02,0.535-0.029,0.798s-0.017,0.518-0.022,0.762s-0.007,0.469-0.007,0.674c0,0.527,0.049,0.972,0.147,1.333
		s0.24,0.657,0.427,0.886c0.186,0.229,0.414,0.396,0.684,0.498s0.571,0.154,0.904,0.154c0.205,0,0.462-0.049,0.77-0.146
		c0.308-0.098,0.645-0.232,1.012-0.403s0.752-0.374,1.158-0.608s0.806-0.491,1.202-0.769s0.775-0.571,1.137-0.879
		c0.361-0.308,0.689-0.623,0.982-0.945V25.957z M82.998,7.407c0-0.107-0.007-0.226-0.022-0.357
		c-0.015-0.131-0.047-0.255-0.096-0.372s-0.125-0.214-0.228-0.292S82.405,6.27,82.219,6.27c-0.255,0-0.513,0.223-0.772,0.669
		s-0.51,1.016-0.75,1.708c-0.24,0.693-0.466,1.457-0.676,2.291c-0.211,0.833-0.404,1.643-0.581,2.428
		c0.147,0.015,0.294,0.027,0.441,0.038c0.147,0.011,0.299,0.024,0.456,0.038c0.294-0.492,0.601-1.025,0.919-1.599
		c0.318-0.574,0.605-1.139,0.86-1.693c0.255-0.555,0.466-1.073,0.633-1.556C82.915,8.111,82.998,7.716,82.998,7.407z"/>
	<path style="fill:#FFFFFF;" d="M91.26,21.163c0.352-0.457,0.737-0.959,1.157-1.506c0.42-0.546,0.833-1.068,1.238-1.565
		s0.813-1.014,1.223-1.551s0.713-0.875,0.908-1.014c0.303-0.219,0.674-0.405,1.113-0.56c0.439-0.154,0.928-0.231,1.465-0.231
		c0.273,0,0.535,0.065,0.784,0.194c0.249,0.129,0.466,0.313,0.652,0.552c0.186,0.239,0.332,0.527,0.439,0.865
		s0.161,0.715,0.161,1.133c0,0.408-0.134,0.893-0.403,1.454s-0.549,1.051-0.842,1.468s-0.61,0.835-0.952,1.252
		s-0.659,0.838-0.952,1.26s-0.537,0.842-0.732,1.26s-0.293,0.835-0.293,1.252c0,0.358,0.085,0.614,0.256,0.768
		s0.437,0.231,0.798,0.231c0.195,0,0.408-0.067,0.637-0.201s0.466-0.311,0.71-0.529s0.491-0.462,0.74-0.73
		c0.249-0.269,0.488-0.542,0.718-0.82s0.447-0.544,0.652-0.798c0.205-0.253,0.391-0.47,0.557-0.648l0.879,3.653
		c-0.303,0.411-0.686,0.792-1.15,1.143s-0.967,0.657-1.509,0.917c-0.542,0.26-1.104,0.463-1.685,0.609s-1.14,0.219-1.677,0.219
		c-0.703,0-1.277-0.08-1.721-0.239c-0.444-0.16-0.793-0.371-1.047-0.635c-0.254-0.264-0.427-0.562-0.52-0.895
		c-0.093-0.332-0.139-0.676-0.139-1.031c0-0.229,0.027-0.509,0.081-0.842c0.054-0.333,0.156-0.708,0.308-1.125
		c0.151-0.417,0.364-0.877,0.637-1.378c0.273-0.502,0.63-1.041,1.069-1.618c0.176-0.179,0.337-0.34,0.483-0.484
		s0.273-0.273,0.381-0.388s0.19-0.221,0.249-0.32c0.059-0.1,0.088-0.204,0.088-0.313c0-0.209-0.037-0.377-0.11-0.507
		s-0.178-0.194-0.315-0.194c-0.166,0-0.381,0.109-0.645,0.328c-0.273,0.229-0.562,0.612-0.864,1.148l-4.307,7.524
		c-0.234,0.355-0.469,0.605-0.703,0.751s-0.508,0.218-0.82,0.218c-0.42,0-0.752-0.085-0.996-0.255s-0.43-0.4-0.557-0.689
		c-0.127-0.289-0.208-0.625-0.242-1.006s-0.051-0.788-0.051-1.22c0-0.565,0.02-1.315,0.059-2.248
		c0.039-0.933,0.098-1.958,0.176-3.074c0.078-1.117,0.183-2.285,0.315-3.506c0.132-1.221,0.291-2.407,0.476-3.558
		c0.072-0.396,0.161-0.88,0.267-1.454s0.249-1.185,0.429-1.833s0.37-1.33,0.569-2.044s0.442-1.405,0.73-2.072
		c0.289-0.667,0.613-1.303,0.975-1.906c0.362-0.604,0.767-1.132,1.217-1.585c0.45-0.453,0.943-0.811,1.481-1.074
		c0.537-0.263,1.124-0.395,1.759-0.395c0.498,0,0.908,0.081,1.23,0.241c0.322,0.161,0.579,0.384,0.769,0.671
		s0.325,0.629,0.403,1.028c0.078,0.398,0.117,0.831,0.117,1.297c0,0.836-0.105,1.735-0.315,2.699s-0.476,1.93-0.798,2.897
		c-0.322,0.969-0.674,1.91-1.055,2.824s-0.747,1.74-1.099,2.477s-0.662,1.359-0.93,1.865c-0.269,0.506-0.447,0.838-0.535,0.996
		l-1.743,2.625L91.26,21.163z M94.126,4.6c-0.317,0-0.589,0.098-0.817,0.292s-0.443,0.472-0.647,0.832
		c-0.203,0.36-0.406,0.799-0.609,1.315C91.85,7.555,91.62,8.13,91.362,8.763c-0.139,0.568-0.283,1.154-0.43,1.756
		s-0.265,1.198-0.355,1.788s-0.178,1.17-0.264,1.741c-0.087,0.571-0.167,1.106-0.243,1.604c-0.146,1.23-0.264,2.441-0.352,3.632
		c0.214-0.654,0.45-1.365,0.707-2.133c0.256-0.768,0.51-1.526,0.762-2.274c0.251-0.748,0.488-1.452,0.71-2.111
		s0.407-1.218,0.555-1.677c0.069-0.215,0.167-0.483,0.296-0.806s0.267-0.669,0.415-1.04c0.148-0.371,0.296-0.757,0.444-1.157
		s0.284-0.786,0.407-1.157c0.123-0.371,0.224-0.718,0.303-1.04s0.119-0.596,0.119-0.82C94.438,4.756,94.334,4.6,94.126,4.6z"/>
	<path style="fill:#FFFFFF;" d="M116.146,25.608c-0.225,0.316-0.525,0.686-0.901,1.111s-0.798,0.83-1.267,1.215
		s-0.972,0.711-1.509,0.978s-1.074,0.4-1.611,0.4c-0.648,0-1.189-0.205-1.623-0.616c-0.434-0.411-0.808-1.008-1.123-1.791
		c-0.236,0.271-0.527,0.546-0.871,0.826c-0.345,0.28-0.721,0.534-1.129,0.761c-0.409,0.227-0.834,0.413-1.277,0.558
		c-0.443,0.145-0.886,0.217-1.329,0.217c-0.469,0-0.925-0.096-1.37-0.288c-0.444-0.192-0.837-0.468-1.179-0.828
		c-0.342-0.359-0.615-0.798-0.82-1.315c-0.205-0.517-0.308-1.101-0.308-1.751c0-0.729,0.103-1.479,0.31-2.248
		c0.206-0.769,0.525-1.601,0.958-2.496c0.432-0.896,0.896-1.669,1.393-2.321c0.496-0.652,1.039-1.221,1.628-1.708
		c0.589-0.487,1.211-0.874,1.864-1.161c0.653-0.287,1.318-0.431,1.997-0.431c0.226,0,0.403,0.044,0.53,0.133
		c0.128,0.089,0.233,0.19,0.317,0.303c0.083,0.114,0.165,0.225,0.243,0.333c0.079,0.109,0.177,0.188,0.295,0.237
		c0.118,0.049,0.238,0.081,0.361,0.096c0.123,0.015,0.248,0.022,0.376,0.022c0.108,0,0.218-0.002,0.331-0.007
		c0.113-0.005,0.224-0.008,0.332-0.008c0.147,0,0.285,0.015,0.413,0.044c0.127,0.03,0.24,0.094,0.338,0.193s0.174,0.237,0.228,0.415
		c0.054,0.177,0.081,0.419,0.081,0.725c0,0.467-0.049,0.985-0.146,1.554s-0.209,1.152-0.335,1.749
		c-0.126,0.597-0.27,1.278-0.431,2.042s-0.242,1.408-0.242,1.932c0,0.448,0.042,0.798,0.125,1.05
		c0.083,0.252,0.261,0.378,0.535,0.378c0.205,0,0.42-0.051,0.645-0.152s0.452-0.235,0.681-0.399s0.459-0.351,0.688-0.559
		c0.229-0.208,0.447-0.423,0.652-0.646c0.479-0.522,0.962-1.113,1.45-1.771L116.146,25.608z M103.579,24.461
		c0,0.251,0.017,0.496,0.051,0.733c0.034,0.236,0.095,0.448,0.184,0.634c0.088,0.187,0.205,0.337,0.352,0.453
		c0.146,0.116,0.333,0.174,0.558,0.174c0.362,0,0.689-0.157,0.983-0.472c0.293-0.314,0.548-0.693,0.763-1.135
		c0.215-0.442,0.389-0.899,0.521-1.372c0.132-0.472,0.217-0.865,0.257-1.18l1.092-4.762c-0.4,0-0.791,0.099-1.172,0.298
		c-0.381,0.198-0.74,0.467-1.077,0.806c-0.337,0.339-0.647,0.726-0.93,1.162c-0.283,0.436-0.562,0.973-0.835,1.612
		c-0.273,0.639-0.466,1.2-0.579,1.684C103.635,23.58,103.579,24.035,103.579,24.461z"/>
</g>
</svg>
